<?xml version="1.0" encoding="utf-8"?>
<!-- Generator: Adobe Illustrator 24.2.3, SVG Export Plug-In . SVG Version: 6.00 Build 0)  -->
<svg version="1.1" id="Layer_1" xmlns="http://www.w3.org/2000/svg" xmlns:xlink="http://www.w3.org/1999/xlink" x="0px" y="0px"
	 viewBox="0 0 65 125" style="enable-background:new 0 0 65 125;" xml:space="preserve">
<style type="text/css">
	.st0{fill:#F7F7F7;}
</style>
<path class="st0" d="M42.82,41.13c0-4.09-0.02-7.55,0.01-11.01c0.05-6.52,2.11-8.62,8.66-8.72c4.26-0.07,8.52-0.01,12.82-0.01
	c0-7.65,0-14.54,0-21.93c-7.12,0-13.9-0.03-20.68,0.01C22.67-0.42,14.34,7.95,14.34,28.82c0,4.05,0,8.1,0,12.37
	c-4.99,0-8.96,0-13.45,0c0,7.3,0,14.02,0,21.35c4.51,0,8.73,0,13.46,0c0,21.18,0,41.76,0,62.4c9.76,0,18.97,0,28.59,0
	c0-20.96,0-41.53,0-62.57c6.51,0,12.61,0,19.09,0c0.9-7.13,1.75-13.85,2.69-21.24C57.38,41.13,50.33,41.13,42.82,41.13z"/>
</svg>
