<?xml version="1.0" encoding="utf-8"?>
<!-- Generator: Adobe Illustrator 24.2.3, SVG Export Plug-In . SVG Version: 6.00 Build 0)  -->
<svg version="1.1" id="Layer_1" xmlns="http://www.w3.org/2000/svg" xmlns:xlink="http://www.w3.org/1999/xlink" x="0px" y="0px"
	 viewBox="0 0 207 103" style="enable-background:new 0 0 207 103;" xml:space="preserve">
<style type="text/css">
	.st0{fill:none;}
	.st1{fill:#FFFFFF;}
	.st2{fill:#E50A0A;}
</style>
<path class="st0" d="M197.22,54.2c-0.21-0.05-0.33-0.53-0.47-0.81c0,0,0,0-0.01,0C196.89,53.67,197,54.15,197.22,54.2z"/>
<path class="st0" d="M201.8,51.13c4.38-2.6,5.81-5.99,4.48-10.73C207.61,45.14,206.18,48.53,201.8,51.13z"/>
<path class="st1" d="M197.22,54.2c-0.21-0.05-0.33-0.53-0.48-0.81c0,0,0,0,0.01,0c0,0,0,0,0,0c1.99-0.68,3.67-1.43,5.06-2.25
	c4.38-2.6,5.81-5.99,4.48-10.73c-0.09-0.32-0.19-0.64-0.3-0.97c-0.17-0.48-0.35-0.97-0.56-1.47c-0.47-1.1-1.07-2.27-1.79-3.5
	c-1.74-3-3.79-5.92-6.16-8.44c-4.82-5.12-11.03-4.63-15.44,0.89c-0.89,1.11-1.82,2.2-3.4,4.1c-0.66-7.9-1.12-14.81-1.85-21.69
	C176.1,2.94,171.31-1,165.01,0.06c-5.05,0.85-10.11,2.19-14.9,4c-7.75,2.92-9.71,9.33-5.44,16.45c3.31,5.52,6.72,10.97,10.87,17.73
	c-9.12-4.69-15.61-3.7-19.17,5.28c-7.75-5.67-11.19-6.47-20.47-5.04c-0.81,0.13-1.65,0.13-2.47,0.13
	c-4.15,0.01-8.29,0.01-12.72,0.01c0.04,0.34-0.07-0.3-0.11-0.95c-0.5-7.45-4.8-11.91-11.42-11.84c-6.67,0.07-10.91,4.68-11.09,12.09
	c-0.05,2.02-0.01,4.04-0.01,6.89c-10.95-9.1-21.36-8.2-32-2.2c-3.62-3.31-7.86-6.27-12.57-3.97c-3.8,1.86-6.72,5.53-9.86,8.25
	c-1.22-1.54-2.83-4.36-5.15-6.35C14.95,37.5,8.97,37.96,5,40.95C0.8,44.1-0.82,49.63,1.52,54.84c3.54,7.88,7.46,15.59,11.45,23.84
	c-1.06,0.75-1.72,1.22-2.37,1.69c-4.02,2.93-5.84,6.82-4.69,11.73c1.15,4.92,4.63,7.6,9.4,8.57c9.37,1.92,17.33-2.53,20.65-11.52
	c1.36-3.7,2.48-7.48,3.95-11.96c3.59,8.06,8.94,12.85,17.21,13.65c7.91,0.76,15.16-0.94,21.27-6.52c5.05,7.4,11.44,8.14,18.76,4.25
	c0.63,9.28,3.68,13.27,10.33,14.01c6.11,0.68,10.09-2.84,12.54-10.09c5.6-2.34,10.25-4.31,14.92-6.21c0.88-0.36,1.88-0.59,2.83-0.62
	c3.35-0.12,6.72-0.32,10.06-0.13c2.92,0.16,5.87,0.61,8.72,1.28c4.03,0.93,7.92,2.74,11.98,3.16c5.73,0.6,9.76-3.49,10.09-9.26
	c0.07-1.2,0.01-2.4,0.01-4.87c1.29,1.87,1.75,2.53,2.2,3.19c4.34,6.43,10.8,7.31,16.44,2c2.28-2.15,4.28-4.66,6.11-7.23
	C209.56,65.11,207.64,56.58,197.22,54.2z M40.26,51.92c-3.54,11.42-7.03,22.86-10.71,34.24c-1.97,6.09-6.1,8.73-12.18,7.47
	c-1.78-0.37-1.78-3.06-3.34-4.46c1.44-1.32,1.31-2.99,2.97-3.41c5.49-1.41,6.13-2.17,3.7-7.31c-3.99-8.41-8.1-16.76-12.18-25.12
	c-1.41-2.89-1.66-5.63,1.67-7.19c2.99-1.41,4.94,0.08,6.33,2.91c2.98,6.09,6.14,12.1,9.68,19.04c2.07-6.85,3.85-12.71,5.62-18.57
	c0.9-2.97,2.29-5.37,6-4.13C41.21,46.52,41.12,49.14,40.26,51.92z M75.41,65.39c-0.38,1.12-2.67,2.16-4.13,2.23
	c-5.44,0.26-10.9,0.1-16.65,0.1c0.46,7.87,5.84,10.56,11.76,6.73c2.5-1.62,5.24-5.3,7.7-0.87c2.16,3.89-1.12,6.46-4.31,8.24
	c-11.45,6.41-23.22,0.27-24.25-12.75c-0.29-3.62-0.29-7.35,0.25-10.93c1.47-9.79,9.56-14.93,19.43-12.67
	C72.94,47.25,78.18,57.18,75.41,65.39z M93.5,58.51c0,6.64-0.05,13.29,0.02,19.93c0.03,3.08-0.81,5.32-4.34,5.31
	c-3.31-0.01-4.08-2.24-4.08-5.04c0.01-13.62,0.01-27.24,0-40.86c0-2.93,1.17-4.95,4.31-4.85c3.08,0.1,4.15,2.11,4.11,5.07
	c-0.02,1.7-0.04,3.4-0.04,5.11C93.47,48.3,93.5,53.41,93.5,58.51z M135.38,66.66c-0.63,14.3-8.22,19.59-22.76,14.83
	c0,3.56,0.49,6.63-0.18,9.43c-0.41,1.75-2.57,3.08-3.94,4.6c-1.35-1.54-3.84-3.06-3.87-4.63c-0.31-13.81-0.25-27.64-0.08-41.46
	c0.02-1.5,1.3-4.09,2.29-4.25c1.95-0.3,4.12,0.75,7.12,1.47c8.47-5.02,21.02-1.93,21.38,14.51C135.39,63,135.46,64.84,135.38,66.66z
	 M147.2,60.06c-0.96,0.25-3.33-1.05-3.36-1.7c-0.2-4.59-0.1-9.21,0.26-13.79c0.07-0.85,1.71-1.57,2.62-2.34
	c6.01,2.52,11.7,4.47,16.92,7.28c2.92,1.57,2.17,4.59-0.77,5.72C157.78,57.18,152.49,58.69,147.2,60.06z M171.47,72.11
	c0,1.49,0,2.99,0,4.48c-0.01,6.7-1.04,7.41-7.64,5.29c-10.9-3.49-11.27-4.63-4.19-13.1c2.02-2.42,3.97-4.92,6.18-7.16
	c0.82-0.83,2.63-1.74,3.35-1.37c1.06,0.54,2.04,2.15,2.18,3.4c0.32,2.79,0.1,5.64,0.1,8.46C171.46,72.11,171.47,72.11,171.47,72.11z
	 M171.52,39.54c-0.14,1.14-0.87,2.78-1.72,3.09c-0.9,0.32-2.82-0.32-3.36-1.15c-5.61-8.65-11.14-17.36-16.34-26.25
	c-0.44-0.75,1.23-3.81,2.51-4.31c4.15-1.63,8.53-2.74,12.89-3.72c2.91-0.65,4.2,1.1,4.39,3.94c0.5,7.31,1.08,14.6,1.72,22.99
	C171.59,35.22,171.78,37.41,171.52,39.54z M178.02,45c3.03-4.96,6.57-9.62,10.17-14.2c0.52-0.66,2.38-0.62,3.47-0.34
	c0.83,0.21,1.47,1.28,2.12,2.04c8.37,9.71,7.65,12.13-4.48,15.14c-2.74,0.68-5.48,1.37-9.64,2.41C179.07,48.39,177.41,46,178.02,45z
	 M197.78,69.32c-6.05,10.04-8.38,10.07-14.33,0.22c-1.54-2.55-3.28-5.02-4.55-7.7c-1.57-3.3-0.05-5.35,3.87-4.93
	c4.71,1.61,9.93,3.25,14.99,5.28c0.91,0.36,1.6,2.33,1.61,3.57C199.38,66.95,198.46,68.2,197.78,69.32z"/>
<path class="st1" d="M196.74,53.39c1.98-0.68,3.67-1.43,5.06-2.25C200.41,51.96,198.73,52.7,196.74,53.39
	C196.74,53.38,196.74,53.39,196.74,53.39z"/>
<path class="st2" d="M65.22,45.48c-9.87-2.26-17.96,2.89-19.43,12.67c-0.54,3.58-0.54,7.31-0.25,10.93
	c1.03,13.01,12.8,19.16,24.25,12.75c3.18-1.78,6.47-4.35,4.31-8.24c-2.46-4.43-5.2-0.75-7.7,0.87c-5.92,3.83-11.3,1.14-11.76-6.73
	c5.75,0,11.21,0.16,16.65-0.1c1.45-0.07,3.75-1.12,4.13-2.23C78.18,57.18,72.94,47.25,65.22,45.48z M51.63,60.76
	c1.16-2.37,1.63-5.3,3.18-6.06c2.41-1.19,5.87-1.81,8.27-0.95c1.93,0.69,2.95,3.94,5.03,7.01C61.91,60.76,57.45,60.76,51.63,60.76z"
	/>
<path class="st2" d="M169.87,11.14c-0.19-2.84-1.49-4.59-4.39-3.94c-4.37,0.97-8.74,2.09-12.89,3.72c-1.27,0.5-2.95,3.55-2.51,4.31
	c5.21,8.89,10.73,17.61,16.34,26.25c0.54,0.83,2.46,1.47,3.36,1.15c0.86-0.31,1.58-1.95,1.72-3.09c0.27-2.13,0.08-4.32,0.08-5.4
	C170.96,25.75,170.37,18.45,169.87,11.14z"/>
<path class="st2" d="M93.5,58.51c0-5.11-0.04-10.21-0.01-15.32c0.01-1.7,0.02-3.4,0.04-5.11c0.04-2.96-1.03-4.97-4.11-5.07
	c-3.13-0.1-4.31,1.92-4.31,4.85c0.01,13.62,0.01,27.24,0,40.86c0,2.8,0.76,5.03,4.08,5.04c3.53,0.01,4.37-2.24,4.34-5.31
	C93.45,71.8,93.5,65.16,93.5,58.51z"/>
<path d="M93.5,58.51c0,6.64-0.05,13.29,0.02,19.93C93.45,71.8,93.5,65.16,93.5,58.51c0-5.11-0.04-10.21-0.01-15.32
	C93.47,48.3,93.5,53.41,93.5,58.51z"/>
<path class="st2" d="M163.64,49.5c-5.22-2.81-10.91-4.76-16.92-7.28c-0.91,0.77-2.55,1.5-2.62,2.34c-0.36,4.58-0.46,9.2-0.26,13.79
	c0.03,0.66,2.4,1.95,3.36,1.7c5.29-1.37,10.57-2.87,15.66-4.84C165.8,54.09,166.55,51.07,163.64,49.5z"/>
<path class="st2" d="M171.35,63.65c-0.14-1.25-1.12-2.85-2.18-3.4c-0.72-0.37-2.53,0.54-3.35,1.37c-2.21,2.24-4.16,4.74-6.18,7.16
	c-7.07,8.47-6.7,9.61,4.19,13.1c6.6,2.11,7.62,1.4,7.64-5.29c0-1.49,0-2.99,0-4.48c-0.01,0-0.02,0-0.03,0
	C171.45,69.29,171.67,66.44,171.35,63.65z"/>
<path class="st2" d="M189.3,47.65c12.13-3.01,12.85-5.43,4.48-15.14c-0.65-0.75-1.29-1.83-2.12-2.04c-1.09-0.28-2.95-0.32-3.47,0.34
	c-3.6,4.58-7.14,9.24-10.17,14.2c-0.61,1,1.05,3.38,1.64,5.05C183.81,49.01,186.55,48.33,189.3,47.65z"/>
<path class="st2" d="M197.77,62.2c-5.06-2.03-10.28-3.67-14.99-5.28c-3.91-0.42-5.43,1.63-3.87,4.93c1.27,2.68,3.01,5.15,4.55,7.7
	c5.95,9.85,8.28,9.82,14.33-0.22c0.68-1.12,1.59-2.37,1.59-3.56C199.37,64.53,198.67,62.56,197.77,62.2z"/>
<path class="st1" d="M124.34,52.81c-2-0.02-5.54,1.74-5.75,3.13c-0.78,5.25-0.86,10.69-0.34,15.97c0.14,1.41,3.34,3.56,5.1,3.51
	c2.01-0.05,4.67-1.72,5.78-3.48c1.3-2.09,1.38-5.3,1.89-7.78c-0.5-2.82-0.6-5.39-1.74-7.64C128.41,54.8,126.06,52.82,124.34,52.81z"
	/>
<path class="st1" d="M63.08,53.75c-2.49-0.53-5.86-0.23-8.27,0.95c-1.55,0.76-1.4,2.86-1.79,6.46c5.82,0,8.89-0.4,15.1-0.4
	C68.02,57.16,65.02,54.16,63.08,53.75z"/>
<path class="st2" d="M135.35,61.17c-0.37-16.45-12.91-19.53-21.38-14.51c-3-0.72-5.17-1.77-7.12-1.47
	c-0.99,0.15-2.27,2.74-2.29,4.25c-0.17,13.1-0.22,26.21,0.04,39.31c-0.36,0.72-0.58,1.53-0.58,2.41c0,2.76,2.01,5,4.5,5
	s4.5-2.24,4.5-5c0-0.65-0.12-1.27-0.32-1.84c0.24-2.37-0.07-4.94-0.07-7.84c14.54,4.76,22.13-0.53,22.76-14.83
	C135.46,64.84,135.39,63,135.35,61.17z M129.12,71.94c-1.1,1.76-3.76,3.43-5.78,3.48c-1.75,0.04-4.96-2.1-5.1-3.51
	c-0.52-5.29-0.44-10.73,0.34-15.97c0.21-1.39,2.42-3.77,5.75-3.13c1.68,0.32,3.67,0.36,4.94,3.71c0.89,2.36,1.09,5.1,1.59,7.92
	C130.37,66.91,130.43,69.85,129.12,71.94z"/>
<path class="st2" d="M37.81,45.38c-3.72-1.24-5.1,1.16-6,4.13c-1.78,5.86-3.55,11.72-5.62,18.57c-3.55-6.94-6.7-12.95-9.68-19.04
	c-1.39-2.83-3.34-4.32-6.33-2.91c-3.33,1.57-3.08,4.31-1.67,7.19c4.09,8.36,8.2,16.71,12.18,25.12c2.13,4.49,1.9,5.64-1.85,6.8
	c-0.27-0.04-0.54-0.07-0.82-0.07c-2.56,0-4.65,1.74-4.94,3.98c-0.14,0.15,0.09-0.11-0.06,0.02c0.14,0.12-0.1,0.66,0.03,0.8
	c0.17,2.34,2.32,4.2,4.97,4.2c0.54,0,1.51,0.14,2,0c4.89,0.25,7.8-2.67,9.53-8c3.68-11.38,7.17-22.82,10.71-34.24
	C41.12,49.14,41.21,46.52,37.81,45.38z"/>
</svg>
